<svg xmlns="http://www.w3.org/2000/svg" xmlns:xlink="http://www.w3.org/1999/xlink" width="59" height="59" viewBox="0 0 59 59"><defs><path id="v9oua" d="M229 859h58.995v58.993H229z"/><path id="v9ouc" d="M258.5 859c16.292 0 29.5 13.208 29.5 29.5S274.792 918 258.5 918 229 904.792 229 888.5s13.208-29.5 29.5-29.5"/><path id="v9oud" d="M273.388 908.885h-29.769a.548.548 0 0 1-.549-.55V870.6c0-.304.245-.549.55-.549h29.78c.303 0 .549.245.549.55v37.736a.566.566 0 0 1-.561.549"/><path id="v9oue" d="M246.1 872.28v30.703h20.469v-4.322h4.323V872.28H246.1"/><path id="v9ouf" d="M266.57 902.983l4.323-4.323h-4.323v4.323"/><path id="v9oug" d="M260.928 868.813v-.853a2.428 2.428 0 0 0-2.43-2.43 2.428 2.428 0 0 0-2.43 2.43v.853h-4.288v4.977h13.447v-4.977h-4.3"/><path id="v9ouh" d="M258.495 866.76a1.215 1.215 0 1 1 0 2.43 1.215 1.215 0 0 1 0-2.43"/><path id="v9oui" d="M249.53 881.365h2.78v-1.285h-2.78z"/><path id="v9ouj" d="M254.04 881.365h13.436v-1.285H254.04z"/><path id="v9ouk" d="M249.53 885.365h2.78v-1.285h-2.78z"/><path id="v9oul" d="M254.04 885.365h13.436v-1.285H254.04z"/><path id="v9oum" d="M249.53 889.375h2.78v-1.285h-2.78z"/><path id="v9oun" d="M254.04 889.375h13.436v-1.285H254.04z"/><path id="v9ouo" d="M249.53 893.385h2.78V892.1h-2.78z"/><path id="v9oup" d="M254.04 893.385h13.436V892.1H254.04z"/><clipPath id="v9oub"><use xlink:href="#v9oua"/></clipPath></defs><g><g transform="translate(-229 -859)"><g><g/><g clip-path="url(#v9oub)"><use fill="#455de1" xlink:href="#v9ouc"/></g></g><g><use fill="#8b9dff" xlink:href="#v9oud"/></g><g><use fill="#fffffe" xlink:href="#v9oue"/></g><g><use fill="#e6e9e9" xlink:href="#v9ouf"/></g><g><use fill="#facc5f" xlink:href="#v9oug"/></g><g><use fill="#455de1" xlink:href="#v9ouh"/></g><g><use fill="#4050dd" xlink:href="#v9oui"/></g><g><use fill="#e6e9e9" xlink:href="#v9ouj"/></g><g><use fill="#4050dd" xlink:href="#v9ouk"/></g><g><use fill="#e6e9e9" xlink:href="#v9oul"/></g><g><use fill="#4050dd" xlink:href="#v9oum"/></g><g><use fill="#e6e9e9" xlink:href="#v9oun"/></g><g><use fill="#4050dd" xlink:href="#v9ouo"/></g><g><use fill="#e6e9e9" xlink:href="#v9oup"/></g></g></g></svg>