<svg xmlns="http://www.w3.org/2000/svg" xmlns:xlink="http://www.w3.org/1999/xlink" width="67" height="67" viewBox="0 0 67 67"><defs><path id="hhbha" d="M957.64 863.55c.449.11.607 1.049.351 2.097-.255 1.049-.827 1.81-1.277 1.7-.45-.109-.607-1.047-.352-2.096.256-1.048.828-1.81 1.277-1.7"/><path id="hhbhb" d="M946.74 867.268c-.45.11-1.022-.652-1.278-1.7-.255-1.05-.098-1.988.352-2.098.45-.109 1.022.652 1.277 1.701.256 1.049.098 1.987-.352 2.097"/><path id="hhbhc" d="M957.194 862.518l-.14 1.815s-.139 4.187-.977 5.862v6.002h-8.242l-.28-5.583s-1.117-3.49-.978-6.002c0 0-.698-2.792-.559-4.467.14-1.675 3.074-3.768 5.31-4.048 2.234-.279 6.705-.14 5.866 6.421"/><path id="hhbhd" d="M946.574 864.609s-.14-1.815 0-2.653c.14-.837.559-2.652 1.397-3.35.838-.837 2.375-1.535 4.33-.977 1.957.559 2.655.698 3.493 1.536.699.977.14.837.838 1.396.699.558.28 3.49.28 3.768h.14s.419-.837.698-2.652c.28-1.814 0-4.327-1.397-6.141-1.397-1.815-5.867-3.49-8.522.279 0 0-1.816-.559-2.095 2.233-.28 2.792.42 4.746.42 5.444.139.419.418 1.117.418 1.117"/><path id="hhbhe" d="M950.903 872.713c-2.515-.698-3.353-2.094-3.353-2.094v.14l.28 5.025c1.815-.28 3.771-.698 5.029-1.396 2.793-1.536 3.213-4.048 3.213-4.048-.42.698-2.655 2.931-5.17 2.373"/><path id="hhbhf" d="M954.54 894.067l3.073-17.867h-5.728l-6.845.837 3.353 17.03h6.146"/><path id="hhbhg" d="M953.841 894.064v-3.629c0-1.814 0-6.281-.14-7.398-.14-1.116-1.117-2.512-1.117-2.931v-1.117l-1.257-.279-.14 1.396s-.838 1.396-1.118 3.07c-.279 1.676-.279 6.84-.279 6.84l2.095 4.188h1.956v-.14"/><path id="hhbhh" d="M949.93 877.174s1.397 2.373 1.257 2.931c0 0 .838-.279 1.397 0 0 0 1.258-2.233 2.096-2.512v-.558c0-.559-4.191-1.675-4.75.14"/><path id="hhbhi" d="M956.071 872.85s-.14.838-.698 1.256c-.56.419-3.493 1.955-3.493 1.955l3.912 3.629 1.536-4.607c0 .14-.698-1.814-1.257-2.233"/><path id="hhbhj" d="M964.594 894.063h6.845c-.838-2.652-3.073-12.004-3.771-13.819-.699-1.814-1.817-1.954-1.817-1.954l-3.911 1.675c-1.397 4.048 2.095 13.4 2.095 13.4s.14.14.56.698"/><path id="hhbhk" d="M940.982 894.064h10.896c-.698-1.536-1.676-3.63-2.514-5.165-1.537-2.791-3.073-12.004-3.073-12.004l-.56-1.675s-4.05 1.954-5.587 2.652a152.113 152.113 0 0 0-2.934 1.256s2.095 6.56 2.794 9.91c.42 1.676.699 3.63.978 5.026"/><path id="hhbhl" d="M964.595 894.063c-2.514-6.42 1.258-15.773 1.258-15.773-3.213-.697-7.265-3.21-7.265-3.21-.14 3.49-1.955 11.585-1.955 11.585s-1.956 2.932-3.493 7.538h11.455v-.14"/><path id="hhbhm" d="M953.978 894.067c1.117-2.373 2.514-5.443 3.352-6.84 1.258-2.093 2.236-5.583 2.655-7.258l.558-2.233-1.676-1.256h.838s-.838-1.117-1.257-1.536c-.42-.279-1.397-.837-1.537-1.256-.28-.419-.28-.419-.558-.558 0 0 .14 1.256.14 2.094-.14.837-.28 6.7-.979 9.631-.419 1.954-1.676 6.281-2.514 8.794 0 .14 0 .279-.14.418h1.118"/><path id="hhbhn" d="M944.892 882.344c.699 1.815 4.61 8.794 5.868 11.167.14.279.28.419.28.558h1.117c-.14-.558-.42-.977-.699-1.535-.698-1.675-3.492-11.167-3.632-12.842-.14-1.675-.28-6.002-.28-6.002-.977 1.396-2.793 2.094-3.073 3.35l.699.14-1.677 1.116c-.14-.14.699 2.234 1.397 4.048"/><path id="hhbho" d="M947.688 873.27s2.934 2.513 4.191 2.792c0 0-2.375 2.093-3.353 3.629 0 0-.698-2.094-1.117-2.513-.42-.418-.42-.837-.559-1.116 0-.14.14-2.094.838-2.792"/><path id="hhbhp" d="M940.985 894.063c-.28-1.396-.559-3.35-.978-5.025-.698-3.21-2.794-9.91-2.794-9.91s-.559-.28-1.118 1.395c-.558 1.675-1.816 7.538-1.955 9.492 0 .558-.14 2.094-.14 3.908h6.985v.14"/><path id="hhbhq" d="M992.672 892.25c4.63 0 8.382 3.75 8.382 8.375S997.3 909 992.672 909c-4.63 0-8.382-3.75-8.382-8.375s3.753-8.375 8.382-8.375"/><path id="hhbhr" d="M992.67 895.6c2.777 0 5.028 2.25 5.028 5.025a5.027 5.027 0 0 1-5.029 5.025 5.027 5.027 0 0 1-5.029-5.025 5.027 5.027 0 0 1 5.03-5.025"/><path id="hhbhs" d="M990.302 881.917c-.559 0-.978-.14-1.397-.558l-4.051-4.048c-.699-.698-.699-1.954 0-2.652.698-.698 1.956-.698 2.654 0l2.794 2.652 7.544-7.537c.698-.698 1.956-.698 2.654 0 .699.697.699 1.954 0 2.652l-8.94 8.933c-.28.279-.839.558-1.258.558"/><path id="hhbht" d="M978.149 876.891v20.798h2.654c.838 0 1.397.559 1.397 1.396 0 .698-.559 1.396-1.397 1.396h-4.051c-.838 0-1.397-.698-1.397-1.396v-22.194h-5.588c-.838 0-1.397-.558-1.397-1.396 0-.698.559-1.396 1.397-1.396h5.588v-22.193c0-.698.559-1.396 1.397-1.396h4.051c.838 0 1.397.698 1.397 1.396s-.559 1.396-1.397 1.396h-2.654v20.797h2.654c.838 0 1.397.698 1.397 1.396 0 .838-.559 1.396-1.397 1.396h-2.654"/><path id="hhbhu" d="M992.672 842c4.63 0 8.382 3.75 8.382 8.375s-3.753 8.375-8.382 8.375c-4.63 0-8.382-3.75-8.382-8.375s3.753-8.375 8.382-8.375"/><path id="hhbhv" d="M992.67 845.35c2.777 0 5.028 2.25 5.028 5.025a5.027 5.027 0 0 1-5.029 5.025 5.027 5.027 0 0 1-5.029-5.025 5.027 5.027 0 0 1 5.03-5.025"/></defs><g><g transform="translate(-934 -842)"><g><use fill="#f6bc5b" xlink:href="#hhbha"/></g><g><use fill="#f6bc5b" xlink:href="#hhbhb"/></g><g><use fill="#f6bc5b" xlink:href="#hhbhc"/></g><g><use fill="#4050dd" xlink:href="#hhbhd"/></g><g><use fill="#efa150" xlink:href="#hhbhe"/></g><g><use fill="#fff" xlink:href="#hhbhf"/></g><g><use fill="#4050dd" xlink:href="#hhbhg"/></g><g><use fill="#4050dd" xlink:href="#hhbhh"/></g><g><use fill="#fff" xlink:href="#hhbhi"/></g><g><use fill="#455de1" xlink:href="#hhbhj"/></g><g><use fill="#8b9dff" xlink:href="#hhbhk"/></g><g><use fill="#8b9dff" xlink:href="#hhbhl"/></g><g><use fill="#35515e" xlink:href="#hhbhm"/></g><g><g><use fill="#35515e" xlink:href="#hhbhn"/></g></g><g><use fill="#fff" xlink:href="#hhbho"/></g><g><use fill="#455de1" xlink:href="#hhbhm"/></g><g><g><use fill="#455de1" xlink:href="#hhbhn"/></g><g><use fill="#455de1" xlink:href="#hhbhp"/></g></g><g><use fill="#8b9dff" xlink:href="#hhbhq"/></g><g><g><use fill="#fff" xlink:href="#hhbhr"/></g><g><use fill="#fff" xlink:href="#hhbhs"/></g></g><g><use fill="#fff" xlink:href="#hhbht"/></g><g><use fill="#8b9dff" xlink:href="#hhbhu"/></g><g><use fill="#fff" xlink:href="#hhbhv"/></g></g></g></svg>