<svg xmlns="http://www.w3.org/2000/svg" xmlns:xlink="http://www.w3.org/1999/xlink" width="59" height="59" viewBox="0 0 59 59"><defs><path id="ys3ra" d="M628.49 881.818c.536.096.826.987.647 1.992-.18 1.004-.76 1.741-1.296 1.646-.537-.096-.827-.987-.648-1.992.179-1.004.76-1.741 1.296-1.646"/><path id="ys3rb" d="M617.44 885.456c-.538.095-1.118-.642-1.297-1.646-.18-1.005.11-1.896.648-1.992.536-.095 1.117.642 1.296 1.646.179 1.005-.111 1.896-.648 1.992"/><path id="ys3rc" d="M629.16 878.716c0 2.956-1.85 8.99-6.54 8.99-4.689 0-6.54-6.158-6.54-8.99 0-2.833 2.962-5.296 6.54-5.296 3.702.123 6.54 2.463 6.54 5.296"/><path id="ys3rd" d="M632.616 893.615c-.864-.37-1.728-.739-2.592-.985h-14.807c-.864.246-1.728.616-2.592.985a8.186 8.186 0 0 0-3.455 3.325c3.085 4.065 7.898 6.65 13.327 6.65 5.43 0 10.366-2.585 13.327-6.65a6.976 6.976 0 0 0-3.208-3.325"/><path id="ys3re" d="M619.16 888.57v1.355c.74 1.354 1.974 2.216 3.455 2.463 1.358-.247 2.592-1.232 3.455-2.463v-1.355h-6.91"/><path id="ys3rf" d="M623.602 896.328l.987-1.601s-1.234-2.217-1.975-2.217c-.74 0-1.974 2.217-1.974 2.217l.987 1.6h1.975"/><path id="ys3rg" d="M619.9 903.343c.864.123 1.728.246 2.715.246.987 0 1.85-.123 2.715-.246l-1.728-7.143h-1.974l-1.728 7.143"/><path id="ys3rh" d="M627.305 891.89l-3.455 11.7a16.5 16.5 0 0 0 12.093-6.65c-.74-1.355-1.851-2.587-3.332-3.326-1.727-.862-3.455-1.355-5.306-1.724z"/><path id="ys3ri" d="M617.931 891.89c-1.85.37-3.578.985-5.306 1.724a8.186 8.186 0 0 0-3.455 3.325 16.78 16.78 0 0 0 12.093 6.528l-3.332-11.577"/><path id="ys3rj" d="M622.74 877.847c-1.11 0-2.098-.124-3.085-.37-1.11-.246-2.221.493-2.468 1.724-.124.74-.247 1.601-.247 2.464 0 4.926 2.468 8.867 5.553 8.867s5.553-3.941 5.553-8.867c0-.863-.123-1.602-.247-2.464-.247-1.108-1.234-1.847-2.344-1.6-.74.122-1.728.246-2.715.246"/><path id="ys3rk" d="M626.075 889.67c-.864 1.355-3.455 2.833-3.455 2.833s2.221 3.079 2.591 4.064l1.975-4.557-1.11-2.34"/><path id="ys3rl" d="M619.16 889.67c.864 1.355 3.456 2.71 3.456 2.71s-2.221 3.078-2.592 4.064l-1.974-4.557 1.11-2.217"/><path id="ys3rm" d="M618.542 890.91l-3.702 3.448 2.715 1.478-2.468 1.601 4.319 5.789c.74.123 1.48.246 2.221.246l-3.085-12.562"/><path id="ys3rn" d="M626.685 890.91l-3.085 12.685c.74 0 1.48-.123 2.221-.246l4.32-5.789-2.469-1.6 2.715-1.478-3.702-3.572"/><path id="ys3ro" d="M650.504 886.844h-1.975c-.987-12.932-11.229-23.154-24.186-24.016v-2.094c0-.985-.74-1.724-1.727-1.724-.987 0-1.728.739-1.728 1.724v1.97c-12.957.986-23.199 11.208-24.063 24.14h-2.097c-.988 0-1.728.739-1.728 1.724s.74 1.724 1.728 1.724h1.974c.864 12.931 11.23 23.154 24.063 24.016v1.97c0 .985.74 1.724 1.727 1.724.988 0 1.728-.739 1.728-1.724v-1.97c12.957-.862 23.199-11.208 24.063-24.016h1.974c.987 0 1.728-.74 1.728-1.724 0-.985-.494-1.724-1.481-1.724zm-26.16 22.907v-1.97c0-.986-.741-1.725-1.728-1.725s-1.728.739-1.728 1.724v1.97c-10.365-.861-18.51-9.113-19.373-19.335h1.974c.987 0 1.727-.739 1.727-1.724s-.74-1.724-1.727-1.724h-2.098c.864-10.346 9.132-18.474 19.374-19.336v1.97c0 .986.74 1.725 1.727 1.725.988 0 1.728-.74 1.728-1.725v-2.216c10.365.862 18.51 9.113 19.373 19.335h-1.974c-.987 0-1.728.74-1.728 1.725 0 .985.74 1.724 1.728 1.724h1.974c-.617 10.468-8.884 18.72-19.25 19.582z"/></defs><g><g transform="translate(-593 -859)"><g><use fill="#facc5f" xlink:href="#ys3ra"/></g><g><use fill="#facc5f" xlink:href="#ys3rb"/></g><g><use fill="#4050dd" xlink:href="#ys3rc"/></g><g><use fill="#e8eae4" xlink:href="#ys3rd"/></g><g><use fill="#eeb050" xlink:href="#ys3re"/></g><g><use fill="#4050dd" xlink:href="#ys3rf"/></g><g><use fill="#4050dd" xlink:href="#ys3rg"/></g><g><use fill="#455de1" xlink:href="#ys3rh"/></g><g><use fill="#455de1" xlink:href="#ys3ri"/></g><g><use fill="#facc5f" xlink:href="#ys3rj"/></g><g><use fill="#f5f5f3" xlink:href="#ys3rk"/></g><g><use fill="#f5f5f3" xlink:href="#ys3rl"/></g><g><use fill="#8b9dff" xlink:href="#ys3rm"/></g><g><g><use fill="#8b9dff" xlink:href="#ys3rn"/></g><g><use fill="#4050dd" xlink:href="#ys3ro"/></g></g></g></g></svg>